HIERARCHY
ROOT Hips
{
	OFFSET 0.000000 71.427986 0.000000
	CHANNELS 6 Xposition Yposition Zposition Xrotation Yrotation Zrotation
	JOINT Pelvis
	{
		OFFSET 0.000000 0.000000 0.000000
		CHANNELS 3 Xrotation Yrotation Zrotation
		JOINT LeftUpLeg
		{
			OFFSET 6.797100 -2.508499 -1.318700
			CHANNELS 3 Xrotation Yrotation Zrotation
			JOINT LeftLeg
			{
				OFFSET 0.069008 -29.241863 0.690200
				CHANNELS 3 Xrotation Yrotation Zrotation
				JOINT LeftFoot
				{
					OFFSET -0.069008 -29.568123 -0.266800
					CHANNELS 3 Xrotation Yrotation Zrotation
					JOINT LeftToeBase
					{
						OFFSET 3.145500 -8.631000 16.059900
						CHANNELS 3 Xrotation Yrotation Zrotation
						End Site
						{
							OFFSET 0.000000 18.501587 0.000000
						}
					}
				}
			}
			JOINT Left_ShortSleeve
			{
				OFFSET 0.265923 -10.480953 1.153800
				CHANNELS 3 Xrotation Yrotation Zrotation
				End Site
				{
					OFFSET 1.725763 19.823879 0.000000
				}
			}
		}
		JOINT RightUpLeg
		{
			OFFSET -6.797100 -2.508499 -1.318700
			CHANNELS 3 Xrotation Yrotation Zrotation
			JOINT RightLeg
			{
				OFFSET -0.082453 -29.241932 0.688000
				CHANNELS 3 Xrotation Yrotation Zrotation
				JOINT RightFoot
				{
					OFFSET 0.082453 -29.568058 -0.264600
					CHANNELS 3 Xrotation Yrotation Zrotation
					JOINT RightToeBase
					{
						OFFSET -3.115300 -8.682800 16.113400
						CHANNELS 3 Xrotation Yrotation Zrotation
						End Site
						{
							OFFSET 0.000000 18.567114 0.000000
						}
					}
				}
			}
			JOINT Right_ShortSleeve
			{
				OFFSET -0.265923 -10.480953 1.153800
				CHANNELS 3 Xrotation Yrotation Zrotation
				End Site
				{
					OFFSET -1.725766 19.823910 0.000000
				}
			}
		}
	}
	JOINT Spine
	{
		OFFSET 0.000000 13.368103 0.470500
		CHANNELS 3 Xrotation Yrotation Zrotation
		JOINT Spine1
		{
			OFFSET 0.147000 13.837402 0.538800
			CHANNELS 3 Xrotation Yrotation Zrotation
			JOINT Spine2
			{
				OFFSET 0.168000 16.242897 -1.435500
				CHANNELS 3 Xrotation Yrotation Zrotation
				JOINT Neck
				{
					OFFSET 0.217200 18.631500 -1.679100
					CHANNELS 3 Xrotation Yrotation Zrotation
					JOINT Head
					{
						OFFSET 0.000000 6.599396 1.385900
						CHANNELS 3 Xrotation Yrotation Zrotation
						JOINT Hat
						{
							OFFSET -0.532200 27.220596 -10.096100
							CHANNELS 3 Xrotation Yrotation Zrotation
							End Site
							{
								OFFSET 0.000000 22.029861 0.000000
							}
						}
						JOINT HairD
						{
							OFFSET -10.777400 17.437393 -1.325900
							CHANNELS 3 Xrotation Yrotation Zrotation
							JOINT HairD1
							{
								OFFSET -3.290299 -11.051193 1.062200
								CHANNELS 3 Xrotation Yrotation Zrotation
								End Site
								{
									OFFSET 0.000000 11.579437 0.000000
								}
							}
						}
						JOINT HairB
						{
							OFFSET -10.777400 17.437393 1.467900
							CHANNELS 3 Xrotation Yrotation Zrotation
							JOINT HairB1
							{
								OFFSET -1.561200 -12.956299 3.590200
								CHANNELS 3 Xrotation Yrotation Zrotation
								End Site
								{
									OFFSET 0.000000 13.534866 0.000000
								}
							}
						}
						JOINT HairA
						{
							OFFSET 9.713100 17.437393 1.467900
							CHANNELS 3 Xrotation Yrotation Zrotation
							JOINT HairA1
							{
								OFFSET 1.561200 -12.956299 3.590200
								CHANNELS 3 Xrotation Yrotation Zrotation
								End Site
								{
									OFFSET 0.000000 13.534866 0.000000
								}
							}
						}
						JOINT HairC
						{
							OFFSET 9.713100 17.437393 -1.325900
							CHANNELS 3 Xrotation Yrotation Zrotation
							JOINT HairC1
							{
								OFFSET 3.290300 -11.051193 1.062200
								CHANNELS 3 Xrotation Yrotation Zrotation
								End Site
								{
									OFFSET 0.000000 11.579437 0.000000
								}
							}
						}
					}
				}
				JOINT LeftShoulder
				{
					OFFSET 5.101800 15.108002 -2.763700
					CHANNELS 3 Xrotation Yrotation Zrotation
					JOINT LeftArm
					{
						OFFSET 9.825497 2.506317 -1.597400
						CHANNELS 3 Xrotation Yrotation Zrotation
						JOINT LeftForeArm
						{
							OFFSET 21.966244 0.000000 0.000000
							CHANNELS 3 Xrotation Yrotation Zrotation
							JOINT LeftHand
							{
								OFFSET 33.879036 0.000000 0.000000
								CHANNELS 3 Xrotation Yrotation Zrotation
								JOINT LeftHandThumb1
								{
									OFFSET 6.715286 -2.359680 3.363841
									CHANNELS 3 Xrotation Yrotation Zrotation
									JOINT LeftHandThumb2
									{
										OFFSET 2.507072 -1.447464 1.447461
										CHANNELS 3 Xrotation Yrotation Zrotation
										JOINT LeftHandThumb3
										{
											OFFSET 2.898338 -1.673355 1.673357
											CHANNELS 3 Xrotation Yrotation Zrotation
											End Site
											{
												OFFSET -0.295959 3.727692 -0.131651
											}
										}
									}
								}
								JOINT LeftHandIndex1
								{
									OFFSET 14.190811 -0.254547 3.840278
									CHANNELS 3 Xrotation Yrotation Zrotation
									JOINT LeftHandIndex2
									{
										OFFSET 3.551727 0.000000 -0.000000
										CHANNELS 3 Xrotation Yrotation Zrotation
										JOINT LeftHandIndex3
										{
											OFFSET 2.894196 0.000000 0.000000
											CHANNELS 3 Xrotation Yrotation Zrotation
											End Site
											{
												OFFSET -1.000603 2.690872 0.366626
											}
										}
									}
								}
								JOINT LeftHandMiddle1
								{
									OFFSET 13.776489 0.000000 0.000000
									CHANNELS 3 Xrotation Yrotation Zrotation
									JOINT LeftHandMiddle2
									{
										OFFSET 3.438232 0.000000 0.000000
										CHANNELS 3 Xrotation Yrotation Zrotation
										JOINT LeftHandMiddle3
										{
											OFFSET 3.691551 0.000000 0.000000
											CHANNELS 3 Xrotation Yrotation Zrotation
											End Site
											{
												OFFSET -1.082298 3.499527 0.457670
											}
										}
									}
								}
								JOINT LeftHandRing1
								{
									OFFSET 13.966164 -0.268127 -3.067488
									CHANNELS 3 Xrotation Yrotation Zrotation
									JOINT LeftHandRing2
									{
										OFFSET 3.162567 0.000000 0.000000
										CHANNELS 3 Xrotation Yrotation Zrotation
										JOINT LeftHandRing3
										{
											OFFSET 3.324348 0.000000 0.000000
											CHANNELS 3 Xrotation Yrotation Zrotation
											End Site
											{
												OFFSET -0.861900 3.184998 0.405154
											}
										}
									}
								}
								JOINT LeftHandPinky1
								{
									OFFSET 13.131393 -0.168503 -5.746925
									CHANNELS 3 Xrotation Yrotation Zrotation
									JOINT LeftHandPinky2
									{
										OFFSET 2.849182 0.000000 0.000000
										CHANNELS 3 Xrotation Yrotation Zrotation
										JOINT LeftHandPinky3
										{
											OFFSET 2.805038 0.000000 0.000000
											CHANNELS 3 Xrotation Yrotation Zrotation
											End Site
											{
												OFFSET -0.882500 2.642609 0.325652
											}
										}
									}
								}
							}
							JOINT Left_Sleeve
							{
								OFFSET 6.592125 -0.646545 0.805568
								CHANNELS 3 Xrotation Yrotation Zrotation
								End Site
								{
									OFFSET -0.000179 20.275787 -0.000000
								}
							}
						}
					}
				}
				JOINT RightShoulder
				{
					OFFSET -5.731700 15.108002 -2.763700
					CHANNELS 3 Xrotation Yrotation Zrotation
					JOINT RightArm
					{
						OFFSET -9.825497 2.506317 -1.597400
						CHANNELS 3 Xrotation Yrotation Zrotation
						JOINT RightForeArm
						{
							OFFSET -21.966242 0.000000 0.000000
							CHANNELS 3 Xrotation Yrotation Zrotation
							JOINT RightHand
							{
								OFFSET -33.879032 0.000000 0.000000
								CHANNELS 3 Xrotation Yrotation Zrotation
								JOINT RightHandThumb1
								{
									OFFSET -6.715286 -2.359680 3.363841
									CHANNELS 3 Xrotation Yrotation Zrotation
									JOINT RightHandThumb2
									{
										OFFSET -2.507072 -1.447464 1.447461
										CHANNELS 3 Xrotation Yrotation Zrotation
										JOINT RightHandThumb3
										{
											OFFSET -2.898338 -1.673355 1.673357
											CHANNELS 3 Xrotation Yrotation Zrotation
											End Site
											{
												OFFSET 0.295959 3.727692 -0.131651
											}
										}
									}
								}
								JOINT RightHandIndex1
								{
									OFFSET -14.190811 -0.254547 3.840278
									CHANNELS 3 Xrotation Yrotation Zrotation
									JOINT RightHandIndex2
									{
										OFFSET -3.551727 0.000000 -0.000000
										CHANNELS 3 Xrotation Yrotation Zrotation
										JOINT RightHandIndex3
										{
											OFFSET -2.894196 0.000000 0.000000
											CHANNELS 3 Xrotation Yrotation Zrotation
											End Site
											{
												OFFSET 1.000603 2.690872 0.366626
											}
										}
									}
								}
								JOINT RightHandMiddle1
								{
									OFFSET -13.776489 0.000000 0.000000
									CHANNELS 3 Xrotation Yrotation Zrotation
									JOINT RightHandMiddle2
									{
										OFFSET -3.438232 0.000000 0.000000
										CHANNELS 3 Xrotation Yrotation Zrotation
										JOINT RightHandMiddle3
										{
											OFFSET -3.691551 0.000000 0.000000
											CHANNELS 3 Xrotation Yrotation Zrotation
											End Site
											{
												OFFSET 1.082298 3.499527 0.457670
											}
										}
									}
								}
								JOINT RightHandRing1
								{
									OFFSET -13.966164 -0.268127 -3.067488
									CHANNELS 3 Xrotation Yrotation Zrotation
									JOINT RightHandRing2
									{
										OFFSET -3.162567 0.000000 0.000000
										CHANNELS 3 Xrotation Yrotation Zrotation
										JOINT RightHandRing3
										{
											OFFSET -3.324348 0.000000 0.000000
											CHANNELS 3 Xrotation Yrotation Zrotation
											End Site
											{
												OFFSET 0.861900 3.184998 0.405154
											}
										}
									}
								}
								JOINT RightHandPinky1
								{
									OFFSET -13.131393 -0.168503 -5.746925
									CHANNELS 3 Xrotation Yrotation Zrotation
									JOINT RightHandPinky2
									{
										OFFSET -2.849182 0.000000 0.000000
										CHANNELS 3 Xrotation Yrotation Zrotation
										JOINT RightHandPinky3
										{
											OFFSET -2.805038 0.000000 0.000000
											CHANNELS 3 Xrotation Yrotation Zrotation
											End Site
											{
												OFFSET 0.882500 2.642609 0.325652
											}
										}
									}
								}
							}
							JOINT Right_Sleeve
							{
								OFFSET -6.592125 -0.646545 0.805568
								CHANNELS 3 Xrotation Yrotation Zrotation
								End Site
								{
									OFFSET 0.000179 20.275787 -0.000000
								}
							}
						}
					}
				}
				JOINT Bind_Right_JacketString
				{
					OFFSET -3.534800 11.969597 7.200700
					CHANNELS 3 Xrotation Yrotation Zrotation
					JOINT Bind_Right_JacketString1
					{
						OFFSET -0.319900 -6.102600 2.794100
						CHANNELS 3 Xrotation Yrotation Zrotation
						End Site
						{
							OFFSET 0.000000 6.719452 0.000000
						}
					}
				}
				JOINT Bind_Left_JacketString
				{
					OFFSET 2.904800 11.969597 7.200700
					CHANNELS 3 Xrotation Yrotation Zrotation
					JOINT Bind_Left_JacketString1
					{
						OFFSET 0.364800 -5.904503 3.186800
						CHANNELS 3 Xrotation Yrotation Zrotation
						End Site
						{
							OFFSET 0.000000 6.719513 0.000000
						}
					}
				}
				JOINT HairE
				{
					OFFSET 5.915200 17.612701 -11.592200
					CHANNELS 3 Xrotation Yrotation Zrotation
					JOINT HairE1
					{
						OFFSET 0.289200 -7.171898 -1.284500
						CHANNELS 3 Xrotation Yrotation Zrotation
						End Site
						{
							OFFSET 0.000000 7.291756 0.000000
						}
					}
				}
				JOINT HairF
				{
					OFFSET -0.864800 17.612701 -11.592200
					CHANNELS 3 Xrotation Yrotation Zrotation
					JOINT HairF1
					{
						OFFSET 0.000000 -14.087097 -2.127501
						CHANNELS 3 Xrotation Yrotation Zrotation
						End Site
						{
							OFFSET 0.000000 14.246841 0.000000
						}
					}
				}
				JOINT HairG
				{
					OFFSET -8.087700 17.612701 -11.592200
					CHANNELS 3 Xrotation Yrotation Zrotation
					JOINT HairG1
					{
						OFFSET -0.293600 -6.081398 -0.910100
						CHANNELS 3 Xrotation Yrotation Zrotation
						End Site
						{
							OFFSET 0.000000 6.156120 0.000000
						}
					}
				}
			}
		}
	}
	JOINT Pouch
	{
		OFFSET 0.000000 4.394501 10.847300
		CHANNELS 3 Xrotation Yrotation Zrotation
		End Site
		{
			OFFSET 0.000000 21.880577 0.000000
		}
	}
	JOINT Bag
	{
		OFFSET -13.229000 4.813004 -0.593300
		CHANNELS 3 Xrotation Yrotation Zrotation
		End Site
		{
			OFFSET 0.000000 21.880577 0.000000
		}
	}
	JOINT OccupyGuyFacialAnim_Joint
	{
		OFFSET 1.000000 -70.206398 -1.655000
		CHANNELS 3 Xrotation Yrotation Zrotation
		End Site
		{
			OFFSET 0.000000 21.880577 0.000000
		}
	}
}
MOTION
Frames: 4
Frame Time: 0.033333
-0.261677 69.843124 1.268970 -7.206933 -6.721990 2.514926 0.000000 0.000000 -0.000000 -6.448644 11.942103 4.495829 11.550345 7.526374 1.462490 3.148155 0.217243 -5.928373 0.000000 -0.000000 0.000000 0.000001 -0.000000 -0.000000 3.104418 -15.065937 -5.838099 23.419728 -9.721934 -1.817496 -19.289523 -5.450270 6.640181 -0.000000 0.000000 0.000000 -0.000000 0.000001 0.000000 5.300857 2.033135 -1.909324 1.472207 0.754858 -0.644031 1.438084 0.766245 -0.614887 2.279390 5.388027 1.629684 3.262420 -10.648699 2.519859 -0.000000 -0.000000 0.000000 -0.000000 -0.000000 0.000000 -0.000000 -0.000000 0.000000 -0.000000 -0.000000 0.000000 -0.000000 -0.000000 0.000000 -0.000000 -0.000000 0.000000 -0.000000 -0.000000 0.000000 -0.000000 -0.000000 0.000000 -0.000000 -0.000000 0.000000 0.156796 -12.684417 -17.418808 5.384727 -1.361294 -41.780779 0.000560 -85.496627 0.000493 -124.889012 -1.567616 12.948392 -12.800099 -17.470102 4.121646 1.012360 0.758792 -1.430642 0.000000 0.000002 0.000002 -3.532530 4.254409 -63.954599 3.402071 5.315497 -65.218936 0.000003 0.000003 0.000000 2.434393 7.296072 -69.364089 3.297840 5.266345 -64.088669 -0.000000 0.000000 0.000001 4.717017 8.075491 -77.582275 2.056299 4.456885 -49.517673 0.000003 0.000001 -0.000001 6.410339 8.363764 -80.414570 1.722716 4.149898 -45.074406 0.000003 -0.000001 0.000003 -0.000000 0.000000 0.000002 0.754039 18.500081 11.538309 10.691226 23.558502 38.361682 -0.000208 97.832426 0.000195 -34.547964 -20.181122 22.178731 20.470558 7.475550 18.843585 4.151723 -12.160920 -33.847986 0.000000 -0.000001 -0.000002 -0.887079 1.427986 12.684531 1.917417 -3.767442 53.934326 0.000003 -0.000000 0.000004 0.770890 -5.199610 54.618813 5.563882 -4.568234 101.238601 0.000000 -0.000000 0.000003 6.934452 -8.544258 63.908755 2.909307 -4.317404 67.934721 -0.000002 -0.000001 -0.000000 8.373374 -8.171783 73.989909 2.173690 -3.940965 57.745397 -0.000002 0.000001 0.000002 -0.000001 -0.000000 -0.000001 0.000000 0.000000 -0.000000 0.000000 0.000000 -0.000000 0.000000 0.000000 0.000000 0.000000 0.000000 0.000000 0.000000 0.000000 -0.000000 0.000000 0.000000 -0.000000 0.000000 0.000000 0.000000 0.000000 0.000000 0.000000 0.000000 0.000000 -0.000000 0.000000 0.000000 -0.000000 0.000000 0.000000 -0.000000 0.000000 0.000000 -0.000000 0.000000 0.000000 -0.000000 
-0.716431 69.827095 0.753363 -7.272699 -5.780186 2.530577 0.000001 0.000000 0.000000 -8.282224 12.484934 5.229799 13.469153 6.329486 1.538783 3.882135 0.189647 -6.123193 -0.000000 -0.000000 0.000000 0.000000 -0.000001 -0.000000 2.628659 -16.586182 -5.360051 23.881995 -9.060937 -2.007422 -19.508521 -5.578983 5.974477 -0.000000 -0.000002 0.000000 -0.000000 -0.000002 -0.000000 5.292057 1.900623 -1.710155 1.472206 0.715837 -0.606111 1.438084 0.727771 -0.576649 2.284530 6.964448 1.336283 3.432761 -8.155943 2.108378 -0.000000 0.000000 0.000000 -0.000000 0.000000 0.000000 -0.000000 0.000000 0.000000 -0.000000 0.000000 0.000000 -0.000000 -0.000000 -0.000000 -0.000000 0.000000 0.000000 -0.000000 -0.000000 -0.000000 -0.000000 0.000000 0.000000 -0.000000 0.000000 0.000000 0.156796 -12.684415 -17.418809 4.529994 -2.425198 -41.815241 -0.000476 -83.333683 -0.000462 -125.182560 0.006878 12.845108 -12.800102 -17.470102 4.121649 1.012358 0.758791 -1.430645 -0.000001 -0.000000 0.000001 -3.532532 4.254407 -63.954592 3.402069 5.315498 -65.218942 0.000003 0.000002 -0.000002 2.434391 7.296070 -69.364089 3.297841 5.266344 -64.088662 0.000001 0.000000 0.000002 4.717014 8.075486 -77.582268 2.056298 4.456885 -49.517673 0.000000 0.000000 -0.000001 6.410338 8.363760 -80.414570 1.722718 4.149894 -45.074399 -0.000000 0.000000 0.000001 -0.000000 -0.000000 0.000002 0.758612 18.522488 11.510033 10.702108 23.562063 38.691703 0.000478 97.572497 -0.000516 -34.804329 -20.655037 21.126328 20.470555 7.475556 18.843592 4.151725 -12.160918 -33.847979 -0.000002 -0.000000 0.000004 -0.887079 1.427985 12.684530 1.917418 -3.767441 53.934326 -0.000003 0.000001 0.000000 0.770890 -5.199605 54.618806 5.563884 -4.568236 101.238601 0.000001 -0.000002 -0.000004 6.934453 -8.544257 63.908748 2.909310 -4.317401 67.934714 0.000001 -0.000002 -0.000000 8.373376 -8.171781 73.989909 2.173689 -3.940965 57.745397 -0.000000 0.000002 0.000001 0.000001 -0.000004 -0.000007 0.000000 0.000000 -0.000000 0.000000 0.000000 0.000000 0.000000 0.000000 0.000000 0.000000 0.000000 0.000000 0.000000 0.000000 -0.000000 0.000000 0.000000 -0.000000 0.000000 0.000000 0.000000 0.000000 0.000000 0.000000 0.000000 0.000000 -0.000000 0.000000 0.000000 -0.000000 0.000001 0.000000 0.000000 0.000001 0.000000 0.000000 0.000001 0.000000 0.000000 
-1.130441 69.792931 0.242456 -7.276598 -4.751103 2.622224 0.000000 0.000000 0.000000 -10.469410 13.098428 5.864258 15.711245 4.871467 1.622233 4.704670 0.019940 -6.154935 -0.000000 -0.000001 0.000000 -0.000001 -0.000000 -0.000001 2.013281 -18.063714 -5.005245 24.474192 -8.525952 -2.199457 -19.769108 -5.725735 5.382118 0.000000 0.000000 -0.000000 0.000000 -0.000001 0.000000 5.355374 1.755175 -1.538025 1.472207 0.673441 -0.580601 1.438084 0.684620 -0.548561 2.312937 8.677052 1.014837 3.519743 -5.861019 1.746270 0.000000 -0.000000 -0.000000 0.000000 -0.000000 -0.000000 0.000000 -0.000000 -0.000000 0.000000 -0.000000 -0.000000 0.000000 -0.000000 -0.000000 0.000000 -0.000000 -0.000000 0.000000 -0.000000 -0.000000 0.000000 -0.000000 -0.000000 0.000000 -0.000000 -0.000000 0.156796 -12.684416 -17.418806 3.580902 -3.650849 -41.913835 -0.000167 -80.835241 -0.000166 -125.494863 1.775132 12.683500 -12.800103 -17.470102 4.121644 1.012359 0.758789 -1.430637 -0.000001 0.000001 -0.000002 -3.532531 4.254406 -63.954592 3.402070 5.315499 -65.218942 0.000001 0.000001 0.000000 2.434391 7.296072 -69.364095 3.297841 5.266343 -64.088669 0.000001 0.000000 0.000001 4.717016 8.075490 -77.582275 2.056299 4.456886 -49.517676 -0.000002 0.000000 -0.000002 6.410339 8.363763 -80.414570 1.722715 4.149896 -45.074396 0.000002 0.000001 -0.000001 -0.000001 -0.000001 -0.000002 0.763244 18.544894 11.481637 10.722214 23.566256 39.028640 -0.000200 97.288402 0.000178 -35.120942 -21.213301 19.939750 20.470558 7.475552 18.843589 4.151726 -12.160919 -33.847983 0.000000 0.000000 0.000001 -0.887078 1.427985 12.684529 1.917417 -3.767442 53.934329 -0.000002 0.000000 0.000000 0.770890 -5.199606 54.618813 5.563884 -4.568232 101.238601 -0.000001 0.000000 -0.000004 6.934453 -8.544256 63.908748 2.909309 -4.317401 67.934714 -0.000001 0.000000 0.000002 8.373376 -8.171779 73.989909 2.173690 -3.940966 57.745397 -0.000000 0.000001 0.000001 0.000002 -0.000001 0.000000 0.000000 -0.000000 -0.000000 0.000000 -0.000000 -0.000000 0.000000 -0.000000 -0.000000 0.000000 -0.000000 -0.000000 0.000000 -0.000000 -0.000000 0.000000 -0.000000 -0.000000 0.000000 -0.000000 -0.000000 0.000000 -0.000000 -0.000000 0.000000 -0.000000 -0.000000 0.000000 -0.000000 -0.000000 0.000000 0.000000 0.000000 0.000000 0.000000 0.000000 0.000000 0.000000 0.000000 
-1.520251 69.760300 -0.259993 -7.264237 -3.699669 2.746557 0.000000 0.000000 -0.000000 -12.549150 13.752705 6.399416 17.643898 3.341719 1.708830 5.747906 -0.176188 -6.062897 -0.000000 0.000001 0.000000 -0.000001 0.000001 0.000000 1.396971 -19.516840 -4.714825 25.015481 -8.040007 -2.393255 -19.993238 -5.879217 4.819960 -0.000000 -0.000000 -0.000000 -0.000000 -0.000000 -0.000000 5.342027 1.648467 -1.380331 1.472206 0.640229 -0.574109 1.438083 0.650783 -0.545733 2.368790 10.462480 0.672944 3.541321 -4.210367 1.432508 0.000000 0.000000 0.000000 0.000000 0.000000 0.000000 0.000000 0.000000 0.000000 0.000000 0.000000 -0.000000 0.000000 0.000000 0.000000 0.000000 0.000000 -0.000000 0.000000 0.000000 0.000000 0.000000 0.000000 0.000000 0.000000 0.000000 0.000000 0.156796 -12.684416 -17.418808 2.552599 -4.965810 -42.091403 0.000043 -78.108486 0.000034 -125.772278 3.683724 12.497923 -12.800098 -17.470101 4.121643 1.012359 0.758790 -1.430642 -0.000000 -0.000000 -0.000001 -3.532530 4.254410 -63.954599 3.402069 5.315499 -65.218949 0.000002 0.000002 0.000000 2.434392 7.296071 -69.364089 3.297840 5.266345 -64.088669 0.000001 0.000001 -0.000001 4.717017 8.075490 -77.582268 2.056299 4.456883 -49.517673 0.000002 0.000001 -0.000001 6.410339 8.363766 -80.414570 1.722717 4.149897 -45.074403 -0.000002 -0.000001 0.000003 0.000003 -0.000000 0.000001 0.768313 18.567045 11.452077 10.746359 23.570908 39.372765 0.000649 96.995025 -0.000677 -35.496442 -21.823508 18.659713 20.470555 7.475554 18.843589 4.151724 -12.160916 -33.847976 -0.000003 -0.000000 0.000003 -0.887079 1.427987 12.684530 1.917417 -3.767444 53.934329 0.000002 0.000002 -0.000001 0.770892 -5.199606 54.618806 5.563881 -4.568234 101.238601 0.000001 -0.000001 -0.000003 6.934455 -8.544254 63.908755 2.909308 -4.317405 67.934721 -0.000002 -0.000002 -0.000002 8.373376 -8.171780 73.989902 2.173691 -3.940967 57.745397 0.000001 0.000001 0.000001 -0.000002 -0.000000 -0.000000 -0.000000 0.000000 -0.000000 -0.000000 0.000000 -0.000000 -0.000000 0.000000 0.000000 -0.000000 0.000000 0.000000 -0.000000 0.000000 -0.000000 -0.000000 0.000000 -0.000000 -0.000000 0.000000 0.000000 -0.000000 0.000000 0.000000 -0.000000 0.000000 -0.000000 -0.000000 0.000000 -0.000000 0.000000 0.000000 -0.000000 0.000000 0.000000 -0.000000 0.000000 0.000000 -0.000000 
